<svg width="264" height="49" viewBox="0 0 264 49" fill="none" xmlns="http://www.w3.org/2000/svg">
<g clip-path="url(#clip0_232_14409)">
<path d="M0 41.2954H9.53925L11.8539 29.7867H26.6905L28.1819 22.4436H13.2968L14.7883 15.0572H31.6539L33.1453 7.71906H6.74527L0 41.2954Z" fill="white"/>
<path d="M55.9329 26.1851C55.3567 29.0008 54.4803 31.0209 53.3084 32.2552C52.1366 33.4847 50.5387 34.1018 48.5146 34.1018C44.7909 34.1018 42.9266 32.342 42.9266 28.8272C42.9266 28.0268 43.0235 27.1493 43.2172 26.1899L46.9263 7.72388H37.3871L33.6295 26.3345C33.3728 27.6797 33.2421 28.8609 33.2421 29.8831C33.2421 32.3468 33.8038 34.4875 34.9272 36.31C36.0506 38.1325 37.6728 39.5307 39.7937 40.5095C41.9146 41.4882 44.4326 41.9704 47.3573 41.9704C57.2161 41.9704 63.177 36.9031 65.2301 26.7636L69.0361 7.71906H59.6421L55.9329 26.1851Z" fill="white"/>
<path d="M71.8301 7.71906L70.2903 15.2501H80.6478L75.3988 41.2954H84.9381L90.1871 15.2501H100.496L102.036 7.71906H71.8301Z" fill="white"/>
<path d="M127.041 7.71906L123.332 26.1851C122.756 29.0008 121.88 31.0209 120.708 32.2552C119.536 33.4847 117.938 34.1018 115.914 34.1018C112.19 34.1018 110.326 32.342 110.326 28.8272C110.326 28.0268 110.423 27.1493 110.617 26.1899L114.326 7.72388H104.786L101.029 26.3345C100.772 27.6797 100.642 28.8609 100.642 29.8831C100.642 32.3468 101.203 34.4875 102.327 36.31C103.45 38.1325 105.072 39.5307 107.193 40.5095C109.314 41.4882 111.832 41.9704 114.757 41.9704C124.616 41.9704 130.576 36.9031 132.629 26.7636L136.435 7.71906H127.041Z" fill="white"/>
<path d="M167.368 10.5492C164.99 8.66405 161.649 7.71906 157.349 7.71906H142.944L136.198 41.2954H145.738L147.519 32.3709H152.338L157.349 41.2954H167.319L161.586 31.2234C164.54 30.2013 166.835 28.5765 168.477 26.3538C170.113 24.1311 170.932 21.4842 170.932 18.4129C170.932 15.0572 169.741 12.4344 167.368 10.5444V10.5492ZM159.562 23.5477C158.405 24.541 156.768 25.0327 154.647 25.0327H148.962L150.987 15.1971H155.998C157.669 15.1971 158.967 15.5394 159.901 16.2288C160.831 16.9183 161.301 17.9501 161.301 19.3242C161.301 21.1467 160.724 22.5545 159.567 23.5477H159.562Z" fill="white"/>
<path d="M183.938 27.8195H198.968L200.368 20.7176H185.386L186.495 15.0572H203.501L204.992 7.71906H178.592L171.847 41.2954H198.876L200.416 33.9572H182.737L183.938 27.8195Z" fill="white"/>
<path d="M264 0.255535C257.187 0.154285 251.255 1.23428 246.282 3.46659C243.822 4.57552 241.595 5.95926 239.614 7.62747C239.28 7.90711 238.961 8.19158 238.656 8.47604C233.373 13.3601 231.281 19.2133 229.421 24.4156C227.664 29.3383 226.129 33.6293 222.274 36.8742C221.117 35.8279 220.105 34.6129 219.272 33.2436C218.628 32.2022 218.095 31.0692 217.689 29.8638C214.715 21.084 219.451 11.5617 228.269 8.6014C229.785 8.09033 231.324 7.80586 232.845 7.73836C233.925 6.46551 235.155 5.22159 236.569 4.03552C237.881 2.93142 239.28 1.93339 240.767 1.04142C238.501 0.361606 236.113 0 233.663 0C230.99 0 228.342 0.433927 225.795 1.29214C212.938 5.6073 206.014 19.5315 210.348 32.3324C210.832 33.7547 211.432 35.1095 212.149 36.3872C212.977 37.8818 213.955 39.2704 215.064 40.5432C211.796 41.4352 208.004 41.6859 203.719 41.2906L203.026 48.7348C204.571 48.8746 206.067 48.947 207.52 48.947C212.953 48.947 217.737 47.9586 221.834 45.9866C223.34 45.2634 224.753 44.4052 226.066 43.4168C227.218 42.549 228.235 41.6281 229.136 40.6638C233.092 36.445 234.879 31.4404 236.491 26.9179C238.302 21.8555 240.011 17.0774 244.457 13.336C244.786 13.0564 245.125 12.7912 245.478 12.5357C246.597 13.6205 247.565 14.8741 248.35 16.2674C248.858 17.1642 249.284 18.1189 249.628 19.1314C252.601 27.916 247.866 37.4334 239.048 40.3986C237.634 40.8759 236.201 41.1556 234.777 41.2472C233.232 43.3397 231.329 45.355 228.908 47.1679C228.429 47.5295 227.94 47.8766 227.436 48.2045C229.436 48.7252 231.523 49 233.658 49C236.331 49 238.975 48.5661 241.527 47.7079C254.378 43.3879 261.308 29.4636 256.969 16.6676C256.557 15.4574 256.064 14.3003 255.482 13.1962C254.713 11.7112 253.797 10.3275 252.761 9.05461C256.01 8.11444 259.729 7.67087 263.893 7.7239L264 0.255535Z" fill="url(#paint0_linear_232_14409)"/>
</g>
<defs>
<linearGradient id="paint0_linear_232_14409" x1="206.174" y1="51.8687" x2="260.766" y2="-2.96448" gradientUnits="userSpaceOnUse">
<stop stop-color="#FF09FF"/>
<stop offset="0.36" stop-color="#9859FF"/>
<stop offset="0.67" stop-color="#469AFF"/>
<stop offset="0.89" stop-color="#13C2FF"/>
<stop offset="1" stop-color="#00D2FF"/>
</linearGradient>
<clipPath id="clip0_232_14409">
<rect width="264" height="49" fill="white"/>
</clipPath>
</defs>
</svg>
